<svg xmlns="http://www.w3.org/2000/svg" width="1200" height="680"
 viewBox="0 0 1200 680">
<rect width="1200" height="680" fill="#ffffff"/>
<text x="70" y="58" font-family="Arial" font-size="26" font-weight="700"
 fill="#172033">Monthly completed orders</text>
<line x1="90" y1="430" x2="1040" y2="430" stroke="#9aa5b1"/>
<line x1="90" y1="90" x2="90" y2="430" stroke="#9aa5b1"/>
<path d="M 90.0 430.0 L 133.2 418.8 L 176.4 430.0 L 219.5 398.2 L 262.7 359.9 L 305.9 322.0 L 349.1 332.3 L 392.3 279.6 L 435.5 297.1 L 478.6 265.8 L 521.8 252.2 L 565.0 254.0 L 608.2 240.1 L 651.4 120.9 L 694.5 196.2 L 737.7 130.2 L 780.9 152.0 L 824.1 133.0 L 867.3 141.7 L 910.5 143.8 L 953.6 171.4 L 996.8 168.8 L 1040.0 160.7" fill="none" stroke="#2f6fed" stroke-width="4"/>
<circle cx="90.0" cy="430.0" r="5" fill="#2f6fed"/>
<text x="90.0" y="460" text-anchor="middle" font-family="Arial" font-size="12">2016-09</text>
<circle cx="133.2" cy="418.8" r="5" fill="#2f6fed"/>
<circle cx="176.4" cy="430.0" r="5" fill="#2f6fed"/>
<text x="176.4" y="460" text-anchor="middle" font-family="Arial" font-size="12">2016-12</text>
<circle cx="219.5" cy="398.2" r="5" fill="#2f6fed"/>
<circle cx="262.7" cy="359.9" r="5" fill="#2f6fed"/>
<text x="262.7" y="460" text-anchor="middle" font-family="Arial" font-size="12">2017-02</text>
<circle cx="305.9" cy="322.0" r="5" fill="#2f6fed"/>
<circle cx="349.1" cy="332.3" r="5" fill="#2f6fed"/>
<text x="349.1" y="460" text-anchor="middle" font-family="Arial" font-size="12">2017-04</text>
<circle cx="392.3" cy="279.6" r="5" fill="#2f6fed"/>
<circle cx="435.5" cy="297.1" r="5" fill="#2f6fed"/>
<text x="435.5" y="460" text-anchor="middle" font-family="Arial" font-size="12">2017-06</text>
<circle cx="478.6" cy="265.8" r="5" fill="#2f6fed"/>
<circle cx="521.8" cy="252.2" r="5" fill="#2f6fed"/>
<text x="521.8" y="460" text-anchor="middle" font-family="Arial" font-size="12">2017-08</text>
<circle cx="565.0" cy="254.0" r="5" fill="#2f6fed"/>
<circle cx="608.2" cy="240.1" r="5" fill="#2f6fed"/>
<text x="608.2" y="460" text-anchor="middle" font-family="Arial" font-size="12">2017-10</text>
<circle cx="651.4" cy="120.9" r="5" fill="#2f6fed"/>
<circle cx="694.5" cy="196.2" r="5" fill="#2f6fed"/>
<text x="694.5" y="460" text-anchor="middle" font-family="Arial" font-size="12">2017-12</text>
<circle cx="737.7" cy="130.2" r="5" fill="#2f6fed"/>
<circle cx="780.9" cy="152.0" r="5" fill="#2f6fed"/>
<text x="780.9" y="460" text-anchor="middle" font-family="Arial" font-size="12">2018-02</text>
<circle cx="824.1" cy="133.0" r="5" fill="#2f6fed"/>
<circle cx="867.3" cy="141.7" r="5" fill="#2f6fed"/>
<text x="867.3" y="460" text-anchor="middle" font-family="Arial" font-size="12">2018-04</text>
<circle cx="910.5" cy="143.8" r="5" fill="#2f6fed"/>
<circle cx="953.6" cy="171.4" r="5" fill="#2f6fed"/>
<text x="953.6" y="460" text-anchor="middle" font-family="Arial" font-size="12">2018-06</text>
<circle cx="996.8" cy="168.8" r="5" fill="#2f6fed"/>
<circle cx="1040.0" cy="160.7" r="5" fill="#2f6fed"/>
<text x="1040.0" y="460" text-anchor="middle" font-family="Arial" font-size="12">2018-08</text>
</svg>